<svg xmlns="http://www.w3.org/2000/svg" viewBox="0 0 512 512" role="img" aria-label="North Barnes Observatory icon">
  <rect width="512" height="512" rx="104" fill="#183725"/>
  <path d="M70 332c78-31 134-13 201-48 66-34 103-92 171-112v180H70Z" fill="#91ad76"/>
  <path d="M58 371c82-36 151-16 222-52 63-31 96-74 174-91" fill="none" stroke="#f5f1df" stroke-width="18" stroke-linecap="round"/>
  <path d="M120 264h64v72h-64zm82-38h72v92h-72zm95-44h78v102h-78z" fill="#eadfc5"/>
  <path d="M115 264l37-31 37 31zm82-38 41-35 41 35zm95-44 44-38 44 38z" fill="#a8654e"/>
  <circle cx="111" cy="145" r="33" fill="#6f945e"/><circle cx="158" cy="127" r="29" fill="#6f945e"/>
</svg>
